# xmcd
#
# Track frame offsets: 
#        150
#        17029
#        32847
#        50160
#        66093
#        81991
#        99243
#        119556
#        135451
#        152407
#        169346
#        182994
#        198039
#        216132
#        231001
#        246222
#
# Disc length: 3540 seconds
#
# Revision: 0
# Processed by: cddbd v1.5.2PL0 Copyright (c) Steve Scherf et al.
# Submitted via: ExactAudioCopy v0.99pb5
#
DISCID=da0dd210
DTITLE=Tom Phillips - Luck Gone Bad
DYEAR=2008
DGENRE=Country
TTITLE0=Ribbons And Bows
TTITLE1=Gravity Of Ruin
TTITLE2=All That's Left Of Me
TTITLE3=Cars And Women
TTITLE4=Sinking Fast
TTITLE5=Ballad Of Miss Rose
TTITLE6=Wherever There's A Party
TTITLE7=Like A Rodeo
TTITLE8=Sings Like An Angel
TTITLE9=After The Fall
TTITLE10=We've Moved On
TTITLE11=Rachel's Song
TTITLE12=Hard Part Of Town
TTITLE13=Man Of Constant Sorrow
TTITLE14=Closing Time
TTITLE15=Big Top Moon
EXTD=
EXTT0=
EXTT1=
EXTT2=
EXTT3=
EXTT4=
EXTT5=
EXTT6=
EXTT7=
EXTT8=
EXTT9=
EXTT10=
EXTT11=
EXTT12=
EXTT13=
EXTT14=
EXTT15=
PLAYORDER=
